<?xml version="1.0" encoding="UTF-8"?>
<svg version="1.1" xmlns="http://www.w3.org/2000/svg" width="512" height="512">
<path d="M0 0 C0.98473106 -0.00445668 0.98473106 -0.00445668 1.98935568 -0.0090034 C4.19332558 -0.01768821 6.39724115 -0.01919845 8.60122681 -0.02069092 C10.17974463 -0.02531921 11.75826133 -0.03034388 13.33677673 -0.03573608 C17.62811983 -0.04886008 21.91944729 -0.05530491 26.21080732 -0.05974674 C28.89118759 -0.06267715 31.57156357 -0.06678187 34.25194168 -0.07125092 C42.63633815 -0.08492514 51.02072485 -0.09459246 59.4051317 -0.09845281 C69.08743986 -0.10293512 78.76960696 -0.12049134 88.45187223 -0.1494534 C95.93390518 -0.17105817 103.4158984 -0.18115642 110.89796221 -0.18249393 C115.36776374 -0.18354271 119.83743266 -0.18946631 124.30720139 -0.20731354 C128.51134115 -0.22377368 132.71524832 -0.2259598 136.9194088 -0.21717453 C138.46214737 -0.21640308 140.00489834 -0.22076112 141.54760551 -0.23063278 C143.65449197 -0.24332367 145.76055101 -0.23749193 147.86743164 -0.22705078 C149.04619558 -0.22851734 150.22495953 -0.2299839 151.43944359 -0.2314949 C154.90101376 0.18099461 156.78487583 1.06646647 159.56069946 3.14044189 C160.71031326 5.43966948 160.68503194 6.71881055 160.68374729 9.27526283 C160.68573834 10.14661043 160.68772939 11.01795802 160.68978077 11.91571009 C160.68686793 12.87873053 160.68395509 13.84175098 160.68095398 14.83395386 C160.68223562 16.36172394 160.68223562 16.36172394 160.68354315 17.92035806 C160.68519871 21.35522776 160.6796753 24.79004931 160.67422485 28.22491455 C160.67394297 30.67838032 160.67410073 33.13184617 160.67466736 35.58531189 C160.67489555 40.87877657 160.67204733 46.17222607 160.66642952 51.4656868 C160.65831233 59.11919889 160.65569907 66.77270501 160.65444153 74.42622094 C160.65225136 86.84268338 160.6455922 99.25913926 160.63613892 111.67559814 C160.62696391 123.73907437 160.61988351 135.80254882 160.6156311 147.86602783 C160.61523702 148.98088251 160.61523702 148.98088251 160.61483497 150.1182595 C160.61352996 153.84675197 160.61226625 157.57524444 160.61102307 161.30373693 C160.60065153 192.24931002 160.58295997 223.19487496 160.56069946 254.14044189 C162.51721687 254.13044914 162.51721687 254.13044914 164.51325989 254.12025452 C176.79965753 254.05946502 189.08602471 254.01447956 201.37253857 253.98500538 C207.68931021 253.96934307 214.00596053 253.94809417 220.32266235 253.91412354 C226.41752123 253.88155071 232.51226334 253.86359314 238.60720253 253.85581017 C240.93364615 253.85026296 243.26008331 253.83943078 245.58647728 253.82325172 C248.84259272 253.80150549 252.09822438 253.79847385 255.35440063 253.79986572 C256.3182518 253.7890799 257.28210297 253.77829407 258.27516174 253.7671814 C263.18448082 253.78992052 266.59541745 253.89588245 270.56069946 257.14044189 C273.93932684 261.78278685 272.89441123 268.08149266 272.87637329 273.55767822 C272.8732147 275.56824029 272.89668563 277.57732729 272.92202759 279.58770752 C272.92267212 280.8619458 272.92331665 282.13618408 272.92398071 283.44903564 C272.92845215 285.19398315 272.92845215 285.19398315 272.93301392 286.97418213 C272.52041078 290.48306744 271.68643794 292.34285578 269.56069946 295.14044189 C266.74819946 296.64044189 266.74819946 296.64044189 263.56069946 297.14044189 C258.01418783 295.04741864 258.01418783 295.04741864 256.56069946 292.14044189 C256.56069946 285.21044189 256.56069946 278.28044189 256.56069946 271.14044189 C213.66069946 271.14044189 170.76069946 271.14044189 126.56069946 271.14044189 C126.56069946 345.39044189 126.56069946 419.64044189 126.56069946 496.14044189 C169.46069946 496.14044189 212.36069946 496.14044189 256.56069946 496.14044189 C256.51429321 483.48184814 256.46788696 470.82325439 256.42007446 457.78106689 C256.39964487 449.77845948 256.38022443 441.77587089 256.36538696 433.77325439 C256.34162911 421.06127487 256.31366187 408.34940119 256.25894165 395.63751221 C256.21911257 386.38053935 256.19327584 377.12365215 256.18434548 367.86659598 C256.17912407 362.96357099 256.16682566 358.0607911 256.13777924 353.15784454 C256.1106722 348.54498042 256.1022449 343.93246287 256.10826874 339.31952667 C256.10716638 337.62477741 256.09918441 335.9300168 256.08387756 334.2353363 C256.06402264 331.92416272 256.06874282 329.61430356 256.0796814 327.30310059 C256.07599422 326.00890324 256.07230705 324.71470589 256.06850815 323.38129044 C256.56069946 320.14044189 256.56069946 320.14044189 258.37201309 317.72402573 C261.56950263 315.41054089 263.71495873 315.59105036 267.56069946 316.14044189 C269.92567386 318.00752694 271.22100662 319.4610562 272.56069946 322.14044189 C272.65222618 324.17275086 272.6782138 326.20812768 272.67422485 328.24249268 C272.67414932 329.52366974 272.67407379 330.8048468 272.67399597 332.12484741 C272.66888894 333.52848346 272.66367294 334.93211912 272.65835571 336.33575439 C272.65649092 337.76779125 272.6550673 339.19982874 272.65406799 340.63186646 C272.65024765 344.40317543 272.64042148 348.17444597 272.62936401 351.94573975 C272.61913952 355.79318726 272.61456814 359.64064097 272.60952759 363.48809814 C272.59879879 371.03889693 272.58172815 378.58966403 272.56069946 386.14044189 C273.21580505 386.13155945 273.87091064 386.122677 274.54586792 386.11352539 C281.35882856 386.0250914 288.1716264 385.96472379 294.98501587 385.92071533 C297.5283775 385.90058918 300.0716928 385.87328552 302.61489868 385.83868408 C306.26882351 385.7902122 309.92213702 385.76748273 313.57632446 385.74981689 C315.2843222 385.71884918 315.2843222 385.71884918 317.02682495 385.68725586 C318.61802155 385.68680267 318.61802155 385.68680267 320.24136353 385.68634033 C321.17402039 385.67745789 322.10667725 385.66857544 323.06759644 385.65942383 C325.56069946 386.14044189 325.56069946 386.14044189 327.86180115 387.46641541 C330.6345192 391.83060922 330.10754019 396.31730104 330.06240845 401.37896729 C330.06781143 402.52565384 330.07321442 403.67234039 330.07878113 404.85377502 C330.09130129 408.64881092 330.07475551 412.44309315 330.05679321 416.23809814 C330.05694811 418.87078389 330.05843558 421.50346988 330.061203 424.13615417 C330.06390418 429.6550072 330.05043642 435.1736426 330.0272522 440.69244385 C330.00062964 447.07390688 329.99889975 453.4550064 330.01064056 459.83650595 C330.02141665 465.97575331 330.01513283 472.11484802 330.00108528 478.25408745 C329.99655996 480.86685236 329.99624336 483.47962797 330.00015068 486.09239388 C330.00305127 489.73892492 329.98661069 493.38485571 329.9647522 497.03131104 C329.96925385 498.11762817 329.97375549 499.20394531 329.97839355 500.32318115 C329.96848892 501.31439468 329.95858429 502.30560822 329.94837952 503.32685852 C329.94594962 504.18907044 329.94351973 505.05128237 329.9410162 505.93962193 C329.47338911 508.64569018 328.72684012 509.49734509 326.56069946 511.14044189 C322.80446197 512.39252106 319.309318 512.28060134 315.39683723 512.27186966 C314.12761165 512.27494861 314.12761165 512.27494861 312.83274513 512.27808976 C309.97236505 512.2837839 307.11203274 512.28229955 304.25164795 512.28088379 C302.1902215 512.28346603 300.12879555 512.2864788 298.0673703 512.28988719 C292.38301201 512.29797682 286.69866633 512.29974785 281.01430297 512.30048466 C274.89150003 512.30233178 268.76870368 512.30987733 262.64590454 512.31661987 C248.55066387 512.33092639 234.45542734 512.33673126 220.36018115 512.34131182 C213.39765589 512.34364662 206.43513145 512.34724912 199.47260683 512.3510072 C175.64762288 512.36384275 151.82263939 512.37456252 127.99765205 512.3780098 C126.50175059 512.37823143 125.00584912 512.37845321 123.50994765 512.37867515 C122.01039977 512.37889579 120.5108519 512.37911627 119.01130402 512.3793366 C116.00286682 512.37977915 112.99442963 512.38022627 109.98599243 512.38067627 C109.24007354 512.38078566 108.49415465 512.38089505 107.72563215 512.38100776 C83.52971168 512.3846398 59.33382114 512.40056536 35.13791213 512.42386663 C9.56714261 512.448447 -16.0036098 512.46218178 -41.57439148 512.46337771 C-44.37983648 512.46354917 -47.18528148 512.4637646 -49.99072647 512.46401215 C-50.6815251 512.46406791 -51.37232372 512.46412368 -52.08405564 512.46418114 C-63.21394937 512.46533308 -74.34381245 512.47636705 -85.47369583 512.4908992 C-96.65421639 512.50524539 -107.83469806 512.50825871 -119.01522885 512.50045922 C-125.07550522 512.49654019 -131.13567814 512.4975432 -137.19594193 512.51151657 C-142.73877808 512.52418046 -148.28143225 512.52312452 -153.82426788 512.51092586 C-155.8343498 512.50895577 -157.84444429 512.51210719 -159.8545085 512.52077022 C-162.577815 512.53176836 -165.30046851 512.52444223 -168.02375603 512.51237869 C-168.81193614 512.51997389 -169.60011625 512.52756908 -170.4121806 512.53539443 C-175.36909298 512.48769075 -178.8663624 511.71338003 -182.43930054 508.14044189 C-182.5436247 505.71884373 -182.58263137 503.32551961 -182.57974243 500.90316772 C-182.58271355 500.13672215 -182.58568468 499.37027658 -182.58874583 498.58060539 C-182.59747065 495.99262991 -182.59894425 493.40470048 -182.60043335 490.81671143 C-182.60505884 488.96923726 -182.61008313 487.12176407 -182.61547852 485.27429199 C-182.62863022 480.24125281 -182.63505283 475.20822698 -182.63948917 470.17517328 C-182.64241537 467.03416799 -182.64651929 463.89316638 -182.65099335 460.75216293 C-182.66467541 450.93467955 -182.67433866 441.11720456 -182.67819524 431.2997123 C-182.68267826 419.94827807 -182.70023453 408.59696413 -182.72919583 397.24556649 C-182.75077789 388.48378599 -182.76089765 379.72203942 -182.76223636 370.96023262 C-182.76328686 365.72140824 -182.7692466 360.48269681 -182.78705597 355.2439003 C-182.80347674 350.31752083 -182.80572148 345.39133993 -182.79691696 340.46494293 C-182.79614336 338.6536824 -182.80053148 336.84241146 -182.81037521 335.03117752 C-182.82299844 332.56443959 -182.81727101 330.09841527 -182.80679321 327.63168335 C-182.81484962 326.90960571 -182.82290602 326.18752808 -182.83120656 325.4435693 C-182.8026061 322.57809692 -182.77674464 320.62197193 -181.10383224 318.2347393 C-177.7395847 316.02301372 -174.76879068 316.01830174 -170.86630249 316.0269165 C-169.72534622 316.02699203 -168.58438995 316.02706757 -167.40885925 316.02714539 C-166.17753769 316.03230667 -164.94621613 316.03746796 -163.67758179 316.04278564 C-161.78618721 316.04490807 -161.78618721 316.04490807 -159.85658264 316.04707336 C-156.50778345 316.05172615 -153.15905243 316.06070848 -149.81027222 316.07177734 C-146.3916991 316.08201502 -142.97311894 316.08657603 -139.55453491 316.09161377 C-132.84943793 316.1026509 -126.14437317 316.11939503 -119.43930054 316.14044189 C-119.44298771 315.17099545 -119.44667488 314.20154902 -119.45047379 313.20272541 C-119.53922908 289.62581457 -119.60498313 266.04892537 -119.64654922 242.47188282 C-119.667184 231.07024515 -119.69532217 219.66871777 -119.74105835 208.26715088 C-119.78089799 198.33080415 -119.80672669 188.39453728 -119.81565452 178.4581129 C-119.82087411 173.19568191 -119.83316121 167.93347943 -119.86222076 162.6711216 C-119.88934439 157.71928021 -119.89775167 152.76776174 -119.89173126 147.81585312 C-119.89283286 145.99735828 -119.90080489 144.17885279 -119.91612244 142.36042213 C-119.9360029 139.87884527 -119.93124732 137.39849007 -119.9203186 134.91688538 C-119.93779565 133.83564784 -119.93779565 133.83564784 -119.95562577 132.73256713 C-119.91403374 129.24236317 -119.48226587 127.21250246 -117.68132019 124.19199371 C-115.20169107 121.92301823 -114.37550989 121.51891351 -111.08596802 121.53916931 C-110.22222565 121.53229599 -109.35848328 121.52542267 -108.46856689 121.51834106 C-107.52917267 121.53631744 -106.58977844 121.55429382 -105.62191772 121.57281494 C-104.12874527 121.57171974 -104.12874527 121.57171974 -102.60540771 121.57060242 C-99.31510936 121.57408586 -96.02622658 121.61298438 -92.73617554 121.65216064 C-90.45503513 121.66148604 -88.17388471 121.66860344 -85.89273071 121.67359924 C-79.88864496 121.69269035 -73.88516395 121.74181032 -67.88131714 121.79711914 C-61.75489483 121.8482655 -55.62837481 121.87110349 -49.50180054 121.89630127 C-37.4807015 121.94992622 -25.4600513 122.03526533 -13.43930054 122.14044189 C-13.44298771 121.54114239 -13.44667488 120.94184288 -13.45047379 120.32438278 C-13.53880046 105.74397591 -13.60499823 91.16358484 -13.64654922 76.58297348 C-13.66717698 69.53188216 -13.69530134 62.48096939 -13.74105835 55.42999268 C-13.78517601 48.62839308 -13.80842282 41.82697931 -13.81880951 35.02524567 C-13.82621373 32.42722906 -13.84067195 29.82922288 -13.86222076 27.2312851 C-13.89115807 23.59889068 -13.89526044 19.96726852 -13.8934021 16.33477783 C-13.9077832 15.25512253 -13.92216431 14.17546722 -13.9369812 13.06309509 C-13.89661404 5.79556422 -13.89661404 5.79556422 -11.59841919 2.5032959 C-7.69490513 0.03936472 -4.51830451 0.01140944 0 0 Z M2.56069946 16.14044189 C2.56069946 51.12044189 2.56069946 86.10044189 2.56069946 122.14044189 C8.50069946 122.14044189 14.44069946 122.14044189 20.56069946 122.14044189 C20.80963594 116.72631482 20.80963594 116.72631482 21.03872681 111.31134033 C21.4143128 104.13611824 21.4143128 104.13611824 23.56069946 101.14044189 C26.61053942 99.61552192 29.20303636 99.90481641 32.56069946 100.14044189 C34.69492499 101.70266416 35.45276557 102.62003111 35.99307251 105.22515869 C36.01925659 106.00544434 36.04544067 106.78572998 36.07241821 107.58966064 C36.10786743 108.43721924 36.14331665 109.28477783 36.17984009 110.15802002 C36.21367798 111.47963135 36.21367798 111.47963135 36.24819946 112.82794189 C36.28235962 113.72061768 36.31651978 114.61329346 36.35171509 115.53302002 C36.43415594 117.7353686 36.50331497 119.93732127 36.56069946 122.14044189 C37.53651978 122.17782471 38.51234009 122.21520752 39.51773071 122.25372314 C40.7900354 122.31946533 42.06234009 122.38520752 43.37319946 122.45294189 C44.63776978 122.51094971 45.90234009 122.56895752 47.20523071 122.62872314 C50.56069946 123.14044189 50.56069946 123.14044189 52.24636871 124.28820115 C54.15148616 126.97301709 53.93992353 129.01355731 53.94546032 132.2880125 C53.95491686 133.58284201 53.9643734 134.87767152 53.9741165 136.21173829 C53.96948628 137.65710517 53.96457976 139.10247119 53.95942688 140.5478363 C53.9648626 142.07660668 53.97161258 143.60537287 53.97956878 145.13413221 C53.99766305 149.3459851 53.99702864 153.55766231 53.99343932 157.76954496 C53.99281737 162.30739618 54.00941758 166.84518747 54.0239563 171.38301086 C54.04678593 179.24871954 54.05863491 187.11438381 54.06308556 194.98012352 C54.06953626 206.35273637 54.09245456 217.72526878 54.11942885 229.09784929 C54.16274094 247.54782654 54.19268241 265.99780042 54.21426392 284.44781494 C54.23526037 302.37328757 54.2625238 320.29873254 54.29824829 338.22418213 C54.30044712 339.32858232 54.30264594 340.43298252 54.3049114 341.57084938 C54.31598072 347.11114405 54.32717359 352.65143847 54.3384279 358.19173276 C54.43167559 404.1746128 54.50242274 450.15750536 54.56069946 496.14044189 C73.04069946 496.14044189 91.52069946 496.14044189 110.56069946 496.14044189 C110.58575562 488.97671875 110.61081177 481.81299561 110.6366272 474.43218994 C110.71743656 451.52692346 110.80309522 428.62167684 110.8918164 405.71643982 C110.90558645 402.16026423 110.91931347 398.60408846 110.93301392 395.0479126 C110.93574222 394.33992383 110.93847052 393.63193506 110.9412815 392.90249208 C110.98539047 381.42967661 111.02601241 369.95685129 111.06535207 358.48401859 C111.10577728 346.71716988 111.14993494 334.95033947 111.19757801 323.18351775 C111.22418455 316.57203962 111.24903778 309.96056515 111.26977348 303.34906578 C111.28932747 297.13165746 111.31346757 290.91428415 111.34119034 284.69690704 C111.35056733 282.4099548 111.35824027 280.12299487 111.36411858 277.83603096 C111.37236871 274.7235293 111.38664239 271.61111287 111.40248108 268.49864197 C111.40345919 267.58522575 111.40443729 266.67180952 111.40544504 265.73071402 C111.41091948 264.89917613 111.41639393 264.06763823 111.42203426 263.21090221 C111.42469231 262.49209163 111.42735035 261.77328104 111.43008894 261.03268832 C111.56069946 259.14044189 111.56069946 259.14044189 112.56069946 256.14044189 C123.04063552 254.04445468 133.88054247 254.53600326 144.56069946 254.14044189 C144.56069946 175.60044189 144.56069946 97.06044189 144.56069946 16.14044189 C97.70069946 16.14044189 50.84069946 16.14044189 2.56069946 16.14044189 Z M-103.43930054 138.14044189 C-103.43930054 152.66044189 -103.43930054 167.18044189 -103.43930054 182.14044189 C-56.57930054 182.14044189 -9.71930054 182.14044189 38.56069946 182.14044189 C38.56069946 167.62044189 38.56069946 153.10044189 38.56069946 138.14044189 C-8.29930054 138.14044189 -55.15930054 138.14044189 -103.43930054 138.14044189 Z M-103.43930054 198.14044189 C-103.43930054 209.69044189 -103.43930054 221.24044189 -103.43930054 233.14044189 C-56.57930054 233.14044189 -9.71930054 233.14044189 38.56069946 233.14044189 C38.56069946 221.59044189 38.56069946 210.04044189 38.56069946 198.14044189 C-8.29930054 198.14044189 -55.15930054 198.14044189 -103.43930054 198.14044189 Z M-103.43930054 250.14044189 C-103.43930054 261.69044189 -103.43930054 273.24044189 -103.43930054 285.14044189 C-56.57930054 285.14044189 -9.71930054 285.14044189 38.56069946 285.14044189 C38.56069946 273.59044189 38.56069946 262.04044189 38.56069946 250.14044189 C-8.29930054 250.14044189 -55.15930054 250.14044189 -103.43930054 250.14044189 Z M-103.43930054 301.14044189 C-103.43930054 312.69044189 -103.43930054 324.24044189 -103.43930054 336.14044189 C-56.57930054 336.14044189 -9.71930054 336.14044189 38.56069946 336.14044189 C38.56069946 324.59044189 38.56069946 313.04044189 38.56069946 301.14044189 C-8.29930054 301.14044189 -55.15930054 301.14044189 -103.43930054 301.14044189 Z M-166.43930054 332.14044189 C-166.43930054 386.26044189 -166.43930054 440.38044189 -166.43930054 496.14044189 C-150.92930054 496.14044189 -135.41930054 496.14044189 -119.43930054 496.14044189 C-119.43930054 442.02044189 -119.43930054 387.90044189 -119.43930054 332.14044189 C-134.94930054 332.14044189 -150.45930054 332.14044189 -166.43930054 332.14044189 Z M-103.43930054 352.14044189 C-103.43930054 363.69044189 -103.43930054 375.24044189 -103.43930054 387.14044189 C-99.06937866 387.2313208 -99.06937866 387.2313208 -94.61117554 387.32403564 C-91.78807044 387.38585292 -88.96500433 387.44922907 -86.14193726 387.51275635 C-84.18070957 387.55605449 -82.21944544 387.59773321 -80.25814819 387.63775635 C-77.43821226 387.69558288 -74.61845893 387.75924173 -71.79867554 387.82403564 C-70.92249573 387.84074814 -70.04631592 387.85746063 -69.14358521 387.87467957 C-68.3230365 387.89462479 -67.50248779 387.91457001 -66.65707397 387.93511963 C-65.93759583 387.95066391 -65.21811768 387.96620819 -64.47683716 387.98222351 C-62.36983407 388.14583609 -60.47094317 388.5704372 -58.43930054 389.14044189 C-57.21707831 396.47377523 -57.21707831 396.47377523 -58.25180054 399.57794189 C-59.43930054 401.14044189 -59.43930054 401.14044189 -61.43930054 402.14044189 C-62.7968235 402.25749153 -64.15955941 402.31721379 -65.52182007 402.34576416 C-66.36254059 402.36570938 -67.20326111 402.3856546 -68.06945801 402.40620422 C-68.97783417 402.42291672 -69.88621033 402.43962921 -70.82211304 402.45684814 C-72.21621902 402.48801979 -72.21621902 402.48801979 -73.63848877 402.51982117 C-76.61368264 402.58531836 -79.58896631 402.64420242 -82.56430054 402.70294189 C-84.57863282 402.74612695 -86.59295595 402.78974124 -88.60726929 402.83380127 C-93.55118892 402.94180941 -98.4951746 403.04088152 -103.43930054 403.14044189 C-103.43930054 414.69044189 -103.43930054 426.24044189 -103.43930054 438.14044189 C-56.57930054 438.14044189 -9.71930054 438.14044189 38.56069946 438.14044189 C38.56069946 426.59044189 38.56069946 415.04044189 38.56069946 403.14044189 C33.48179321 403.11466064 28.40288696 403.08887939 23.17007446 403.06231689 C19.95257601 403.0371504 16.73517176 403.01081928 13.51773071 402.98028564 C8.41079345 402.93193177 3.30407419 402.88789461 -1.80307007 402.8694458 C-5.92061105 402.85430198 -10.0375818 402.81989777 -14.15486908 402.77213287 C-15.72568556 402.75729543 -17.29658345 402.74939952 -18.86746979 402.74855804 C-21.06813857 402.74619357 -23.26722473 402.71916011 -25.46762085 402.68634033 C-26.72004578 402.67745789 -27.9724707 402.66857544 -29.2628479 402.65942383 C-33.00686543 402.0477108 -34.20450786 401.15661268 -36.43930054 398.14044189 C-36.93930054 395.14044189 -36.93930054 395.14044189 -36.43930054 392.14044189 C-34.20450786 389.12427111 -33.00686543 388.23317299 -29.2628479 387.62145996 C-28.01042297 387.61257751 -26.75799805 387.60369507 -25.46762085 387.59454346 C-24.77453323 387.58420578 -24.08144562 387.5738681 -23.36735535 387.56321716 C-21.0838081 387.53379493 -18.8011474 387.53229022 -16.51742554 387.53106689 C-14.93128774 387.51608473 -13.34516555 387.4993575 -11.75906372 387.48095703 C-7.58994835 387.43727482 -3.42104342 387.41728268 0.7482605 387.40222168 C5.75362281 387.37921153 10.75875296 387.32678095 15.76393127 387.27928162 C23.36291463 387.21046114 30.96123124 387.17901788 38.56069946 387.14044189 C38.56069946 375.59044189 38.56069946 364.04044189 38.56069946 352.14044189 C-8.29930054 352.14044189 -55.15930054 352.14044189 -103.43930054 352.14044189 Z M272.56069946 402.14044189 C272.56069946 433.16044189 272.56069946 464.18044189 272.56069946 496.14044189 C286.09069946 496.14044189 299.62069946 496.14044189 313.56069946 496.14044189 C313.56069946 465.12044189 313.56069946 434.10044189 313.56069946 402.14044189 C300.03069946 402.14044189 286.50069946 402.14044189 272.56069946 402.14044189 Z M-103.43930054 454.14044189 C-103.43930054 468.00044189 -103.43930054 481.86044189 -103.43930054 496.14044189 C-56.57930054 496.14044189 -9.71930054 496.14044189 38.56069946 496.14044189 C38.56069946 482.28044189 38.56069946 468.42044189 38.56069946 454.14044189 C-8.29930054 454.14044189 -55.15930054 454.14044189 -103.43930054 454.14044189 Z " fill="#000000" transform="translate(182.43930053710938,-0.14044189453125)"/>
<path d="M0 0 C0.83975876 -0.00852997 1.67951752 -0.01705994 2.54472351 -0.02584839 C3.92172928 -0.02448883 3.92172928 -0.02448883 5.32655334 -0.02310181 C6.29592331 -0.02981903 7.26529327 -0.03653625 8.26403809 -0.04345703 C11.47511389 -0.06248751 14.68598127 -0.06636366 17.89710999 -0.06851196 C20.12526537 -0.07493592 22.3534199 -0.08166398 24.58157349 -0.08868408 C29.2547247 -0.10066917 33.92780191 -0.10436359 38.60096741 -0.10317993 C44.5946849 -0.10297657 50.58792914 -0.13029117 56.58153439 -0.16472435 C61.18400256 -0.18693948 65.78635583 -0.19101914 70.38887215 -0.18996048 C72.59891454 -0.19232409 74.80895975 -0.2011901 77.01894951 -0.21662521 C80.10750049 -0.23617775 83.19501767 -0.23048934 86.28358459 -0.21841431 C87.19956421 -0.22965332 88.11554382 -0.24089233 89.0592804 -0.25247192 C95.25320316 -0.19080328 95.25320316 -0.19080328 98.4335022 2.17279053 C99.97595246 4.4222866 100.43754721 5.56356778 100.43226624 8.26742554 C100.4541803 8.92742554 100.47609436 9.58742554 100.49867249 10.26742554 C99.47569772 13.52061238 97.73764373 14.4760053 94.86976624 16.26742554 C91.70802452 16.85345239 88.59376511 16.81417466 85.38539124 16.78500366 C83.96256836 16.79551758 83.96256836 16.79551758 82.51100159 16.8062439 C79.38029068 16.82382719 76.2504861 16.81219964 73.11976624 16.79867554 C70.94170458 16.80137035 68.76364409 16.80525267 66.58558655 16.81027222 C62.02264442 16.81616773 57.46001567 16.80760233 52.89710999 16.78890991 C47.04922033 16.76612064 41.20206499 16.77924339 35.35420227 16.80319977 C30.85717743 16.81765611 26.3603266 16.81305244 21.86329651 16.8026886 C19.707127 16.80002088 17.55094169 16.80329265 15.39479065 16.81260681 C12.38081536 16.8227694 9.36802807 16.80727471 6.35414124 16.78500366 C5.01833008 16.79714905 5.01833008 16.79714905 3.65553284 16.80953979 C-0.45228258 16.7533261 -2.59925863 16.59642248 -6.16441345 14.38742065 C-8.4736744 11.89704964 -9.04770872 10.65095225 -9.13023376 7.26742554 C-7.68489293 2.08828756 -5.40219101 0.02482127 0 0 Z " fill="#000000" transform="translate(361.13023376464844,146.73257446289063)"/>
<path d="M0 0 C0.88012756 -0.00861557 1.76025513 -0.01723114 2.66705322 -0.02610779 C5.57594222 -0.04880739 8.48387089 -0.04202132 11.39282227 -0.03295898 C13.41537259 -0.03819304 15.43792046 -0.04446871 17.46046448 -0.05174255 C21.69983402 -0.06215432 25.93886807 -0.05757442 30.17822266 -0.04296875 C35.61038729 -0.02578543 41.04149378 -0.0492668 46.47354031 -0.08445835 C50.6506094 -0.10642243 54.82742497 -0.10499315 59.00453377 -0.09669304 C61.00720441 -0.09587287 63.00989355 -0.10274876 65.0125103 -0.11746407 C67.81368842 -0.13489029 70.61296096 -0.12038353 73.4140625 -0.09765625 C74.24071915 -0.10934845 75.06737579 -0.12104065 75.91908264 -0.13308716 C80.18409395 -0.0627029 81.80705062 0.17090579 85.28627014 2.88539124 C87.27172852 5.53344727 87.27172852 5.53344727 87.89672852 8.53344727 C87.03837446 12.65354671 85.57562785 13.94997968 82.27172852 16.53344727 C79.35047766 17.24874938 76.5178347 17.20749497 73.52172852 17.16455078 C72.6512085 17.17170609 71.78068848 17.17886139 70.88378906 17.18623352 C68.01256479 17.20311192 65.14290381 17.18372322 62.27172852 17.16235352 C60.27302929 17.16318229 58.27433012 17.16564201 56.27563477 17.16966248 C52.08922785 17.17251989 47.90335611 17.15782457 43.71704102 17.13037109 C38.35337467 17.09628862 32.99066527 17.10230717 27.62695312 17.12103367 C23.50048867 17.13160699 19.37424652 17.12266277 15.24780273 17.10764885 C13.27027039 17.10246903 11.29271481 17.10294641 9.31518555 17.1091938 C6.55019284 17.11464997 3.7865656 17.09425823 1.02172852 17.06689453 C-0.20187378 17.07668335 -0.20187378 17.07668335 -1.45019531 17.08666992 C-5.40848901 17.02012782 -7.30716219 16.80064648 -10.73583984 14.62510681 C-12.72827148 12.53344727 -12.72827148 12.53344727 -13.35717773 10.53344727 C-13.33526367 9.87344727 -13.31334961 9.21344727 -13.29077148 8.53344727 C-13.29206055 7.87344727 -13.29334961 7.21344727 -13.29467773 6.53344727 C-11.40558946 -0.13698859 -5.93941707 -0.04677303 0 0 Z " fill="#000000" transform="translate(336.728271484375,464.466552734375)"/>
<path d="M0 0 C0.88012756 -0.00861557 1.76025513 -0.01723114 2.66705322 -0.02610779 C5.57594222 -0.04880739 8.48387089 -0.04202132 11.39282227 -0.03295898 C13.41537259 -0.03819304 15.43792046 -0.04446871 17.46046448 -0.05174255 C21.69983402 -0.06215432 25.93886807 -0.05757442 30.17822266 -0.04296875 C35.61038729 -0.02578543 41.04149378 -0.0492668 46.47354031 -0.08445835 C50.6506094 -0.10642243 54.82742497 -0.10499315 59.00453377 -0.09669304 C61.00720441 -0.09587287 63.00989355 -0.10274876 65.0125103 -0.11746407 C67.81368842 -0.13489029 70.61296096 -0.12038353 73.4140625 -0.09765625 C74.24071915 -0.10934845 75.06737579 -0.12104065 75.91908264 -0.13308716 C80.18409395 -0.0627029 81.80705062 0.17090579 85.28627014 2.88539124 C87.27172852 5.53344727 87.27172852 5.53344727 87.89672852 8.53344727 C87.03837446 12.65354671 85.57562785 13.94997968 82.27172852 16.53344727 C79.35047766 17.24874938 76.5178347 17.20749497 73.52172852 17.16455078 C72.6512085 17.17170609 71.78068848 17.17886139 70.88378906 17.18623352 C68.01256479 17.20311192 65.14290381 17.18372322 62.27172852 17.16235352 C60.27302929 17.16318229 58.27433012 17.16564201 56.27563477 17.16966248 C52.08922785 17.17251989 47.90335611 17.15782457 43.71704102 17.13037109 C38.35337467 17.09628862 32.99066527 17.10230717 27.62695312 17.12103367 C23.50048867 17.13160699 19.37424652 17.12266277 15.24780273 17.10764885 C13.27027039 17.10246903 11.29271481 17.10294641 9.31518555 17.1091938 C6.55019284 17.11464997 3.7865656 17.09425823 1.02172852 17.06689453 C-0.20187378 17.07668335 -0.20187378 17.07668335 -1.45019531 17.08666992 C-5.40848901 17.02012782 -7.30716219 16.80064648 -10.73583984 14.62510681 C-12.72827148 12.53344727 -12.72827148 12.53344727 -13.35717773 10.53344727 C-13.33526367 9.87344727 -13.31334961 9.21344727 -13.29077148 8.53344727 C-13.29206055 7.87344727 -13.29334961 7.21344727 -13.29467773 6.53344727 C-11.40558946 -0.13698859 -5.93941707 -0.04677303 0 0 Z " fill="#000000" transform="translate(336.728271484375,428.466552734375)"/>
<path d="M0 0 C0.87052002 -0.00861557 1.74104004 -0.01723114 2.63793945 -0.02610779 C5.5089307 -0.04876852 8.37894601 -0.04202919 11.25 -0.03295898 C13.24870087 -0.03819425 15.24739926 -0.04447037 17.24609375 -0.05174255 C21.43241004 -0.06214675 25.61838642 -0.05758452 29.8046875 -0.04296875 C35.1684468 -0.02577461 40.53113553 -0.04928409 45.89477539 -0.08445835 C50.02123101 -0.10642114 54.14742998 -0.10499367 58.27392578 -0.09669304 C60.25147679 -0.09587303 62.22904656 -0.10274587 64.20654297 -0.11746407 C66.97169792 -0.13489079 69.73492263 -0.12038401 72.5 -0.09765625 C73.31573486 -0.10934845 74.13146973 -0.12104065 74.97192383 -0.13308716 C79.21026552 -0.06223196 80.80056107 0.18201074 84.2578125 2.88539124 C86.25 5.53344727 86.25 5.53344727 86.875 8.53344727 C86.01587736 12.65723594 84.56045909 13.95062863 81.25 16.53344727 C78.29335353 17.25024537 75.42322577 17.2074196 72.39233398 17.16455078 C71.06951416 17.17528374 71.06951416 17.17528374 69.7199707 17.18623352 C66.81148121 17.20311164 63.90453486 17.18372485 60.99609375 17.16235352 C58.97257866 17.16318222 56.94906363 17.16564166 54.92555237 17.16966248 C50.68787335 17.17251977 46.45072308 17.15782434 42.21313477 17.13037109 C36.77987181 17.09626686 31.34755298 17.10231452 25.91424465 17.12103367 C21.73720929 17.13159835 17.56039389 17.122671 13.38337898 17.10764885 C11.37990026 17.10246415 9.3763986 17.10295232 7.3729229 17.1091938 C4.57420249 17.1146404 1.77683747 17.0942897 -1.02172852 17.06689453 C-1.85040939 17.07342041 -2.67909027 17.07994629 -3.53288269 17.08666992 C-7.18619816 17.02582066 -9.30768471 16.86972175 -12.26011658 14.62510681 C-13.86422335 12.37308816 -14.31784643 11.27082072 -14.3125 8.53344727 C-14.33441406 7.87344727 -14.35632813 7.21344727 -14.37890625 6.53344727 C-12.27446917 -0.15892408 -5.81822524 -0.0465458 0 0 Z " fill="#000000" transform="translate(337.75,392.466552734375)"/>
<path d="M0 0 C0.87052002 -0.00861557 1.74104004 -0.01723114 2.63793945 -0.02610779 C5.5089307 -0.04876852 8.37894601 -0.04202919 11.25 -0.03295898 C13.24870087 -0.03819425 15.24739926 -0.04447037 17.24609375 -0.05174255 C21.43241004 -0.06214675 25.61838642 -0.05758452 29.8046875 -0.04296875 C35.1684468 -0.02577461 40.53113553 -0.04928409 45.89477539 -0.08445835 C50.02123101 -0.10642114 54.14742998 -0.10499367 58.27392578 -0.09669304 C60.25147679 -0.09587303 62.22904656 -0.10274587 64.20654297 -0.11746407 C66.97169792 -0.13489079 69.73492263 -0.12038401 72.5 -0.09765625 C73.31573486 -0.10934845 74.13146973 -0.12104065 74.97192383 -0.13308716 C79.21026552 -0.06223196 80.80056107 0.18201074 84.2578125 2.88539124 C86.25 5.53344727 86.25 5.53344727 86.875 8.53344727 C86.01587736 12.65723594 84.56045909 13.95062863 81.25 16.53344727 C78.29335353 17.25024537 75.42322577 17.2074196 72.39233398 17.16455078 C71.06951416 17.17528374 71.06951416 17.17528374 69.7199707 17.18623352 C66.81148121 17.20311164 63.90453486 17.18372485 60.99609375 17.16235352 C58.97257866 17.16318222 56.94906363 17.16564166 54.92555237 17.16966248 C50.68787335 17.17251977 46.45072308 17.15782434 42.21313477 17.13037109 C36.77987181 17.09626686 31.34755298 17.10231452 25.91424465 17.12103367 C21.73720929 17.13159835 17.56039389 17.122671 13.38337898 17.10764885 C11.37990026 17.10246415 9.3763986 17.10295232 7.3729229 17.1091938 C4.57420249 17.1146404 1.77683747 17.0942897 -1.02172852 17.06689453 C-1.85040939 17.07342041 -2.67909027 17.07994629 -3.53288269 17.08666992 C-7.18619816 17.02582066 -9.30768471 16.86972175 -12.26011658 14.62510681 C-13.86422335 12.37308816 -14.31784643 11.27082072 -14.3125 8.53344727 C-14.33441406 7.87344727 -14.35632813 7.21344727 -14.37890625 6.53344727 C-12.27446917 -0.15892408 -5.81822524 -0.0465458 0 0 Z " fill="#000000" transform="translate(337.75,356.466552734375)"/>
<path d="M0 0 C0.87052002 -0.00861557 1.74104004 -0.01723114 2.63793945 -0.02610779 C5.5089307 -0.04876852 8.37894601 -0.04202919 11.25 -0.03295898 C13.24870087 -0.03819425 15.24739926 -0.04447037 17.24609375 -0.05174255 C21.43241004 -0.06214675 25.61838642 -0.05758452 29.8046875 -0.04296875 C35.1684468 -0.02577461 40.53113553 -0.04928409 45.89477539 -0.08445835 C50.02123101 -0.10642114 54.14742998 -0.10499367 58.27392578 -0.09669304 C60.25147679 -0.09587303 62.22904656 -0.10274587 64.20654297 -0.11746407 C66.97169792 -0.13489079 69.73492263 -0.12038401 72.5 -0.09765625 C73.31573486 -0.10934845 74.13146973 -0.12104065 74.97192383 -0.13308716 C79.21026552 -0.06223196 80.80056107 0.18201074 84.2578125 2.88539124 C86.25 5.53344727 86.25 5.53344727 86.875 8.53344727 C86.01587736 12.65723594 84.56045909 13.95062863 81.25 16.53344727 C78.29335353 17.25024537 75.42322577 17.2074196 72.39233398 17.16455078 C71.06951416 17.17528374 71.06951416 17.17528374 69.7199707 17.18623352 C66.81148121 17.20311164 63.90453486 17.18372485 60.99609375 17.16235352 C58.97257866 17.16318222 56.94906363 17.16564166 54.92555237 17.16966248 C50.68787335 17.17251977 46.45072308 17.15782434 42.21313477 17.13037109 C36.77987181 17.09626686 31.34755298 17.10231452 25.91424465 17.12103367 C21.73720929 17.13159835 17.56039389 17.122671 13.38337898 17.10764885 C11.37990026 17.10246415 9.3763986 17.10295232 7.3729229 17.1091938 C4.57420249 17.1146404 1.77683747 17.0942897 -1.02172852 17.06689453 C-1.85040939 17.07342041 -2.67909027 17.07994629 -3.53288269 17.08666992 C-7.18619816 17.02582066 -9.30768471 16.86972175 -12.26011658 14.62510681 C-13.86422335 12.37308816 -14.31784643 11.27082072 -14.3125 8.53344727 C-14.33441406 7.87344727 -14.35632813 7.21344727 -14.37890625 6.53344727 C-12.27446917 -0.15892408 -5.81822524 -0.0465458 0 0 Z " fill="#000000" transform="translate(337.75,320.466552734375)"/>
<path d="M0 0 C0.86076645 -0.00554901 1.7215329 -0.01109802 2.60838318 -0.01681519 C5.44717481 -0.02860391 8.28436743 -0.00434457 11.12304688 0.02148438 C13.0993238 0.02319576 15.075603 0.02312952 17.05187988 0.0213623 C21.19122065 0.02301511 25.33001956 0.04170606 29.46923828 0.07324219 C34.77226321 0.1129195 40.0745785 0.11728714 45.37772369 0.10977936 C49.45785002 0.10670825 53.53781713 0.11883522 57.61790466 0.13591003 C59.57310487 0.14293602 61.52832312 0.14606505 63.48353577 0.1452179 C66.2172195 0.14701777 68.95005662 0.16841576 71.68359375 0.1953125 C72.48997787 0.1923819 73.296362 0.18945129 74.12718201 0.18643188 C78.69182684 0.25564668 81.72300738 0.75302736 85.34179688 3.61523438 C86.76841906 6.46847875 86.65213555 8.44977987 86.34179688 11.61523438 C84.87451172 14.27500916 84.87451172 14.27500916 82.34179688 16.61523438 C79.21499771 17.11291158 76.63247864 17.28987879 73.50585938 17.24633789 C72.61437195 17.25349319 71.72288452 17.2606485 70.80438232 17.26802063 C67.85799898 17.2849273 64.91313297 17.2654936 61.96679688 17.24414062 C59.91943231 17.24496914 57.87206781 17.24742787 55.82470703 17.25144958 C51.533976 17.25430894 47.24376658 17.23959271 42.953125 17.2121582 C37.45145564 17.17807544 31.95071914 17.18409247 26.44900513 17.20282078 C22.22135638 17.21338618 17.99392493 17.20445708 13.76629639 17.18943596 C11.73769781 17.18425032 9.70907657 17.18474056 7.68048096 17.19098091 C4.84573521 17.19642749 2.01232767 17.1760759 -0.82226562 17.14868164 C-1.66186829 17.15520752 -2.50147095 17.1617334 -3.36651611 17.16845703 C-6.98201305 17.10900493 -9.20361188 16.94365836 -12.17529297 14.79673767 C-14.38601519 11.5445529 -14.26449407 9.45507703 -13.65820312 5.61523438 C-9.76304358 0.37185125 -6.18632331 -0.10175141 0 0 Z " fill="#000000" transform="translate(337.658203125,284.384765625)"/>
<path d="M0 0 C0.99810448 -0.00744736 0.99810448 -0.00744736 2.01637268 -0.01504517 C4.21616655 -0.02964196 6.41588832 -0.03646445 8.61572266 -0.04199219 C10.14645387 -0.0477455 11.67718507 -0.05350321 13.20791626 -0.05926514 C16.41742284 -0.06976792 19.62690443 -0.07561537 22.83642578 -0.07910156 C26.94446772 -0.08458613 31.0521782 -0.10861613 35.1601162 -0.13707352 C38.3223059 -0.15571735 41.48441601 -0.16090641 44.64665604 -0.16243744 C46.16089313 -0.16546035 47.67512894 -0.17347671 49.18931198 -0.18662262 C51.31005681 -0.20372099 53.42999503 -0.20179423 55.55078125 -0.1953125 C56.75640717 -0.19895813 57.96203308 -0.20260376 59.20419312 -0.20635986 C62.74391048 0.20007126 64.58239244 1.02152708 67.40478516 3.16113281 C69.40478516 6.16113281 69.40478516 6.16113281 69.21728516 9.66113281 C68.14946601 14.26096915 68.14946601 14.26096915 65.40478516 16.16113281 C62.00396126 17.29474078 59.39591097 17.29504265 55.80957031 17.30639648 C54.81146584 17.3114344 54.81146584 17.3114344 53.79319763 17.3165741 C51.59339531 17.32607313 49.39366921 17.32802673 47.19384766 17.32910156 C45.66311614 17.33231507 44.13238493 17.33567921 42.60165405 17.33918762 C39.39214364 17.3451764 36.18266014 17.3470278 32.97314453 17.34643555 C28.86517637 17.34633398 24.75738128 17.35998132 20.64945412 17.37720776 C17.48726614 17.38833957 14.32511984 17.39035439 11.16291428 17.38982582 C9.64868956 17.39100434 8.13446372 17.39541895 6.62025833 17.40315819 C4.49964619 17.41298125 2.37940751 17.41007101 0.25878906 17.40405273 C-1.54964981 17.40619026 -1.54964981 17.40619026 -3.3946228 17.40837097 C-6.6027616 17.16054984 -8.76510989 16.67153261 -11.59521484 15.16113281 C-14.07560391 11.44054921 -14.05858687 9.56316711 -13.59521484 5.16113281 C-9.77761519 0.15876085 -5.99094267 0.03397425 0 0 Z " fill="#000000" transform="translate(37.59521484375,81.8388671875)"/>
<path d="M0 0 C1.02736519 -0.00744736 1.02736519 -0.00744736 2.07548523 -0.01504517 C4.34021003 -0.02964434 6.60486479 -0.03646484 8.86962891 -0.04199219 C10.44520062 -0.04774528 12.02077231 -0.053503 13.59634399 -0.05926514 C16.90000738 -0.06976859 20.20364648 -0.07561561 23.50732422 -0.07910156 C27.73643031 -0.08458639 31.96521446 -0.10861671 36.19421959 -0.13707352 C39.44905531 -0.15571484 42.70381368 -0.16090628 45.95869827 -0.16243744 C47.51759222 -0.16546089 49.07648491 -0.17347909 50.63532639 -0.18662262 C52.81833011 -0.20371569 55.00054989 -0.20179544 57.18359375 -0.1953125 C58.42474945 -0.19895813 59.66590515 -0.20260376 60.94467163 -0.20635986 C64.50235857 0.19266837 66.38326793 1.0183384 69.22119141 3.16113281 C70.64781359 6.01437719 70.53153008 7.9956783 70.22119141 11.16113281 C68.65637207 13.81991577 68.65637207 13.81991577 66.22119141 16.16113281 C62.9197998 16.79605103 62.9197998 16.79605103 58.94580078 16.80810547 C57.85728569 16.82124786 57.85728569 16.82124786 56.7467804 16.83465576 C54.35222265 16.85663129 51.95951732 16.84210574 49.56494141 16.82519531 C47.89871873 16.82856403 46.23249845 16.83341712 44.56628418 16.83969116 C41.07585227 16.84705991 37.58606056 16.83635758 34.09570312 16.81298828 C29.62289221 16.78449969 25.15158126 16.80090376 20.67882538 16.8308506 C17.23863434 16.848924 13.79879858 16.84316554 10.3585968 16.83021164 C8.70957766 16.8268777 7.06052619 16.83096434 5.4115448 16.84260941 C3.1056891 16.8553199 0.80225725 16.83594348 -1.50341797 16.80810547 C-2.81483765 16.8041275 -4.12625732 16.80014954 -5.47741699 16.79605103 C-8.77880859 16.16113281 -8.77880859 16.16113281 -11.20617676 13.81210327 C-13.12045564 10.58522165 -13.32907772 8.85579694 -12.77880859 5.16113281 C-9.69610582 -0.27029588 -5.81738106 0.0320444 0 0 Z " fill="#000000" transform="translate(74.77880859375,56.8388671875)"/>
<path d="M0 0 C0.71592316 -0.00686325 1.43184631 -0.0137265 2.16946411 -0.02079773 C4.53114771 -0.03906884 6.89216729 -0.03522846 9.25390625 -0.02954102 C10.89770728 -0.03410232 12.54150639 -0.03940774 14.18530273 -0.04542542 C17.62849684 -0.05435682 21.071459 -0.05193272 24.51464844 -0.04199219 C28.92670838 -0.03049556 33.33796881 -0.05072385 37.74992371 -0.07990932 C41.14372846 -0.09825524 44.53734097 -0.09798225 47.93118286 -0.0922718 C49.55788292 -0.09211843 51.18459588 -0.09817633 52.81124878 -0.11056328 C55.08561393 -0.12544391 57.35849381 -0.11482026 59.6328125 -0.09765625 C61.57329468 -0.097407 61.57329468 -0.097407 63.55297852 -0.09715271 C66.81640625 0.40405273 66.81640625 0.40405273 69.23022461 2.2205658 C71.57794975 5.45236917 71.43125623 7.51000284 70.81640625 11.40405273 C68.20904907 14.75304144 66.73009806 16.23424735 62.50865173 17.01878357 C60.62479515 17.0111776 60.62479515 17.0111776 58.70288086 17.00341797 C57.6580378 17.00933205 57.6580378 17.00933205 56.59208679 17.0153656 C54.30023182 17.02205346 52.01039023 16.99296666 49.71875 16.96264648 C48.12122483 16.95839385 46.52369347 16.95606753 44.92616272 16.95558167 C41.5828946 16.94942373 38.24029844 16.92675975 34.8972168 16.89111328 C30.61427248 16.84580459 26.33193562 16.8310849 22.04877377 16.82737637 C18.75189741 16.82294559 15.45514822 16.8076385 12.1583271 16.78849983 C10.57909756 16.77962843 8.99985451 16.77289319 7.42060661 16.76833916 C5.21368542 16.75928483 3.00730999 16.73688539 0.80053711 16.71044922 C-0.45457169 16.69980942 -1.70968048 16.68916962 -3.00282288 16.6782074 C-6.01120052 16.41891152 -7.69221001 16.04878046 -10.18359375 14.40405273 C-12.26518395 11.72772248 -12.17946966 10.28651606 -12.05859375 6.84155273 C-11.18359375 3.40405273 -11.18359375 3.40405273 -9.57788086 1.71446228 C-6.28534412 -0.08756537 -3.74675625 0.01564843 0 0 Z " fill="#000000" transform="translate(419.18359375,178.595947265625)"/>
<path d="M0 0 C4.05325652 0.84442844 5.39838135 2.44542376 8 5.625 C8.64697266 8.77539062 8.64697266 8.77539062 8.6640625 12.28125 C8.67050781 13.55097656 8.67695313 14.82070312 8.68359375 16.12890625 C8.66425781 17.44761719 8.64492188 18.76632813 8.625 20.125 C8.65400391 22.10306641 8.65400391 22.10306641 8.68359375 24.12109375 C8.67714844 25.39082031 8.67070312 26.66054687 8.6640625 27.96875 C8.65842285 29.12568359 8.6527832 30.28261719 8.64697266 31.47460938 C7.8101278 35.54957014 6.2040973 37.05415389 3 39.625 C0 40.25 0 40.25 -3 39.625 C-6.2040973 37.05415389 -7.8101278 35.54957014 -8.64697266 31.47460938 C-8.6526123 30.31767578 -8.65825195 29.16074219 -8.6640625 27.96875 C-8.67050781 26.69902344 -8.67695313 25.42929688 -8.68359375 24.12109375 C-8.66425781 22.80238281 -8.64492188 21.48367187 -8.625 20.125 C-8.65400391 18.14693359 -8.65400391 18.14693359 -8.68359375 16.12890625 C-8.67714844 14.85917969 -8.67070312 13.58945313 -8.6640625 12.28125 C-8.65842285 11.12431641 -8.6527832 9.96738281 -8.64697266 8.77539062 C-7.63136219 3.82994252 -4.94652028 1.03052506 0 0 Z " fill="#000000" transform="translate(301,164.375)"/>
<path d="M0 0 C2.43723027 2.35226391 2.96913366 3.7597834 3.40405273 7.14453125 C3.41380127 8.35496094 3.4235498 9.56539063 3.43359375 10.8125 C3.4388356 11.46323486 3.44407745 12.11396973 3.44947815 12.78442383 C3.45588282 14.15607276 3.45458142 15.52777674 3.44604492 16.89941406 C3.43752508 18.99383521 3.46632474 21.08553497 3.49804688 23.1796875 C3.49965892 24.51562419 3.49908128 25.85156568 3.49609375 27.1875 C3.49887329 29.00314453 3.49887329 29.00314453 3.50170898 30.85546875 C2.90489765 34.59606726 2.01864147 35.77541816 -1 38 C-5.09055333 38.66936327 -7.14918828 38.52281764 -10.6953125 36.34375 C-14.92542563 31.83414582 -13.58504698 24.6629014 -13.4375 18.9375 C-13.43169922 17.65810547 -13.42589844 16.37871094 -13.41992188 15.06054688 C-13.28204857 4.5546008 -13.28204857 4.5546008 -11 1 C-7.44020669 -1.76872813 -4.1946238 -1.06772242 0 0 Z " fill="#000000" transform="translate(261,432)"/>
<path d="M0 0 C2.43723027 2.35226391 2.96913366 3.7597834 3.40405273 7.14453125 C3.41380127 8.35496094 3.4235498 9.56539063 3.43359375 10.8125 C3.4388356 11.46323486 3.44407745 12.11396973 3.44947815 12.78442383 C3.45588282 14.15607276 3.45458142 15.52777674 3.44604492 16.89941406 C3.43752508 18.99383521 3.46632474 21.08553497 3.49804688 23.1796875 C3.49965892 24.51562419 3.49908128 25.85156568 3.49609375 27.1875 C3.49887329 29.00314453 3.49887329 29.00314453 3.50170898 30.85546875 C2.90489765 34.59606726 2.01864147 35.77541816 -1 38 C-5.09055333 38.66936327 -7.14918828 38.52281764 -10.6953125 36.34375 C-14.92542563 31.83414582 -13.58504698 24.6629014 -13.4375 18.9375 C-13.43169922 17.65810547 -13.42589844 16.37871094 -13.41992188 15.06054688 C-13.28204857 4.5546008 -13.28204857 4.5546008 -11 1 C-7.44020669 -1.76872813 -4.1946238 -1.06772242 0 0 Z " fill="#000000" transform="translate(261,299)"/>
<path d="M0 0 C3.31980637 3.23950399 3.40614788 6.0434162 3.46875 10.55859375 C3.48852529 12.51140403 3.50764744 14.46433732 3.50097656 16.41723633 C3.50000425 18.42870326 3.54163877 20.43634935 3.5859375 22.44726562 C3.58980469 24.35862305 3.58980469 24.35862305 3.59375 26.30859375 C3.60083984 27.47189209 3.60792969 28.63519043 3.61523438 29.83374023 C2.81771248 33.93812968 1.22219326 35.4215924 -2 38 C-5.82112305 38.7960673 -7.35671782 38.40146098 -10.66015625 36.33984375 C-14.23414494 32.57944439 -13.56531554 27.69265709 -13.53710938 22.80273438 C-13.50423828 21.52720703 -13.47136719 20.25167969 -13.4375 18.9375 C-13.43169922 17.65810547 -13.42589844 16.37871094 -13.41992188 15.06054688 C-13.28204857 4.5546008 -13.28204857 4.5546008 -11 1 C-7.44020669 -1.76872813 -4.1946238 -1.06772242 0 0 Z " fill="#000000" transform="translate(261,166)"/>
<path d="M0 0 C3.01864147 2.22458184 3.90489765 3.40393274 4.50170898 7.14453125 C4.49985596 8.35496094 4.49800293 9.56539062 4.49609375 10.8125 C4.49754898 11.46323486 4.49900421 12.11396973 4.50050354 12.78442383 C4.49884833 14.15613293 4.48732896 15.52786132 4.46655273 16.89941406 C4.4375879 18.99364461 4.44595005 21.08534258 4.45898438 23.1796875 C4.45274639 24.51563725 4.44435497 25.85157903 4.43359375 27.1875 C4.42384521 28.39792969 4.41409668 29.60835937 4.40405273 30.85546875 C3.96913366 34.2402166 3.43723027 35.64773609 1 38 C-2.42890226 38.87281149 -4.89259577 39.32922829 -8.3125 38.3125 C-10.41803839 36.67485903 -11.01438057 35.48541808 -12 33 C-12.48206774 28.36638791 -12.41638926 23.71859034 -12.4375 19.0625 C-12.47037109 17.78697266 -12.50324219 16.51144531 -12.53710938 15.19726562 C-12.59737122 4.75005287 -12.59737122 4.75005287 -9.6953125 1.65625 C-6.14918828 -0.52281764 -4.09055333 -0.66936327 0 0 Z " fill="#000000" transform="translate(260,99)"/>
<path d="M0 0 C4.59983633 1.06781915 4.59983633 1.06781915 6.5 3.8125 C8.11456863 8.6562059 7.72615798 13.61510983 7.75 18.6875 C7.770625 19.77675781 7.79125 20.86601562 7.8125 21.98828125 C7.81765625 23.04144531 7.8228125 24.09460938 7.828125 25.1796875 C7.84214355 26.61997314 7.84214355 26.61997314 7.85644531 28.08935547 C7.43415957 31.31550286 6.37716197 33.17975444 4.5 35.8125 C1.91453944 37.77388387 0.71204975 37.82548264 -2.5625 37.625 C-5.58460663 36.78909817 -6.72127815 36.34015737 -8.5 33.8125 C-10.08180528 28.80505467 -9.7242532 23.57263623 -9.75 18.375 C-9.770625 17.33794922 -9.79125 16.30089844 -9.8125 15.23242188 C-9.86179838 5.63772386 -9.86179838 5.63772386 -6.5 1.8125 C-3.5 -0.1875 -3.5 -0.1875 0 0 Z " fill="#000000" transform="translate(476.5,419.1875)"/>
<path d="M0 0 C4.05452359 0.84469241 5.40006528 2.44208397 8 5.625 C8.63110352 8.79125977 8.63110352 8.79125977 8.62890625 12.31640625 C8.63180664 14.22776367 8.63180664 14.22776367 8.63476562 16.17773438 C8.62227783 16.83604248 8.60979004 17.49435059 8.59692383 18.17260742 C8.56252307 20.18614993 8.57629607 22.19531857 8.59570312 24.20898438 C8.52162449 33.962671 8.52162449 33.962671 6.14819336 36.97631836 C3.3516486 39.12259257 1.51675368 39.55322952 -2 39.625 C-6.56521739 37.49456522 -6.56521739 37.49456522 -8 34.625 C-8.28042286 30.53970043 -8.31359145 26.45276466 -8.35009766 22.35864258 C-8.36663597 20.99974414 -8.39389921 19.64093195 -8.43212891 18.2824707 C-8.48709607 16.31775314 -8.50566889 14.35212475 -8.5234375 12.38671875 C-8.54325684 11.21069092 -8.56307617 10.03466309 -8.58349609 8.82299805 C-7.67068582 3.82011025 -4.97555875 1.03657474 0 0 Z " fill="#000000" transform="translate(301,98.375)"/>
<path d="M0 0 C0.66 -0.0103125 1.32 -0.020625 2 -0.03125 C4.96483533 0.75628439 6.09612021 2.11284264 8 4.5 C8.51757812 7.64453125 8.51757812 7.64453125 8.53125 11.3125 C8.5350769 11.96323486 8.53890381 12.61396973 8.54284668 13.28442383 C8.54556076 14.65610304 8.53823453 16.02783444 8.52148438 17.39941406 C8.50006119 19.49401685 8.52129637 21.58519084 8.546875 23.6796875 C8.54423163 25.01563254 8.53910643 26.35157545 8.53125 27.6875 C8.52673828 28.89792969 8.52222656 30.10835937 8.51757812 31.35546875 C7.90520871 35.07590181 6.95067457 36.23192388 4 38.5 C0.95492506 39.59310383 -0.5634877 39.62181739 -3.6875 38.75 C-6 37.5 -6 37.5 -8 34.5 C-8.4088979 30.23406098 -8.37160537 25.95911758 -8.37060547 21.67602539 C-8.37497836 19.57290644 -8.41130479 17.47188824 -8.44921875 15.36914062 C-8.4550875 14.02865299 -8.4590565 12.68815541 -8.4609375 11.34765625 C-8.46915527 10.13086182 -8.47737305 8.91406738 -8.48583984 7.66040039 C-7.73114067 2.75106329 -5.07371042 -0.07927673 0 0 Z " fill="#000000" transform="translate(301,32.5)"/>
<path d="M0 0 C0.99 0.03287109 0.99 0.03287109 2 0.06640625 C2.66 0.06511719 3.32 0.06382812 4 0.0625 C6.94492834 0.89651291 8.09719321 2.24528531 10 4.62890625 C10.51757812 7.7734375 10.51757812 7.7734375 10.53125 11.44140625 C10.5350769 12.09214111 10.53890381 12.74287598 10.54284668 13.41333008 C10.54556076 14.78500929 10.53823453 16.15674069 10.52148438 17.52832031 C10.50006119 19.6229231 10.52129637 21.71409709 10.546875 23.80859375 C10.54423163 25.14453879 10.53910643 26.4804817 10.53125 27.81640625 C10.52673828 29.02683594 10.52222656 30.23726563 10.51757812 31.484375 C9.90520871 35.20480806 8.95067457 36.36083013 6 38.62890625 C2.98494674 39.71123306 1.42099685 39.73660312 -1.6875 38.94140625 C-4.45442399 37.37098993 -4.88662625 36.56864714 -6 33.62890625 C-6.45716233 28.99466325 -6.37031037 24.34586105 -6.375 19.69140625 C-6.39949219 18.41587891 -6.42398438 17.14035156 -6.44921875 15.82617188 C-6.45308594 14.59705078 -6.45695313 13.36792969 -6.4609375 12.1015625 C-6.46915527 10.98015869 -6.47737305 9.85875488 -6.48583984 8.70336914 C-5.84364511 4.63947049 -4.11323811 1.29342058 0 0 Z " fill="#000000" transform="translate(254,364.37109375)"/>
<path d="M0 0 C0.99 0.03287109 0.99 0.03287109 2 0.06640625 C2.66 0.06511719 3.32 0.06382813 4 0.0625 C6.94492834 0.89651291 8.09719321 2.24528531 10 4.62890625 C10.51757812 7.7734375 10.51757812 7.7734375 10.53125 11.44140625 C10.5350769 12.09214111 10.53890381 12.74287598 10.54284668 13.41333008 C10.54556076 14.78500929 10.53823453 16.15674069 10.52148438 17.52832031 C10.50006119 19.6229231 10.52129637 21.71409709 10.546875 23.80859375 C10.54423163 25.14453879 10.53910643 26.4804817 10.53125 27.81640625 C10.52673828 29.02683594 10.52222656 30.23726562 10.51757812 31.484375 C9.90520871 35.20480806 8.95067457 36.36083013 6 38.62890625 C2.98494674 39.71123306 1.42099685 39.73660312 -1.6875 38.94140625 C-4.45442399 37.37098993 -4.88662625 36.56864714 -6 33.62890625 C-6.45716233 28.99466325 -6.37031037 24.34586105 -6.375 19.69140625 C-6.39949219 18.41587891 -6.42398438 17.14035156 -6.44921875 15.82617188 C-6.45308594 14.59705078 -6.45695313 13.36792969 -6.4609375 12.1015625 C-6.46915527 10.98015869 -6.47737305 9.85875488 -6.48583984 8.70336914 C-5.84364511 4.63947049 -4.11323811 1.29342058 0 0 Z " fill="#000000" transform="translate(254,32.37109375)"/>
<path d="M0 0 C0.99 0.03287109 0.99 0.03287109 2 0.06640625 C2.66 0.06511719 3.32 0.06382812 4 0.0625 C6.94492834 0.89651291 8.09719321 2.24528531 10 4.62890625 C10.51757812 7.7734375 10.51757812 7.7734375 10.53125 11.44140625 C10.5350769 12.09214111 10.53890381 12.74287598 10.54284668 13.41333008 C10.54556076 14.78500929 10.53823453 16.15674069 10.52148438 17.52832031 C10.50006119 19.6229231 10.52129637 21.71409709 10.546875 23.80859375 C10.54423163 25.14453879 10.53910643 26.4804817 10.53125 27.81640625 C10.52673828 29.02683594 10.52222656 30.23726563 10.51757812 31.484375 C9.90505838 35.20572139 8.94825644 36.35725428 6 38.62890625 C3.5625 39.56640625 3.5625 39.56640625 1 39.62890625 C-2.48634601 38.00734996 -3.84302194 36.86437333 -6 33.62890625 C-6.47302142 29.01873614 -6.37036358 24.38568729 -6.375 19.75390625 C-6.39949219 18.47386719 -6.42398438 17.19382813 -6.44921875 15.875 C-6.45308594 14.64136719 -6.45695313 13.40773437 -6.4609375 12.13671875 C-6.46915527 11.0089502 -6.47737305 9.88118164 -6.48583984 8.71923828 C-5.84561693 4.64690581 -4.12314042 1.29653439 0 0 Z " fill="#000000" transform="translate(254,231.37109375)"/>
<path d="M0 0 C3.03342964 2.20416615 3.90317853 3.41176392 4.51757812 7.14453125 C4.52208984 8.35496094 4.52660156 9.56539062 4.53125 10.8125 C4.5350769 11.46323486 4.53890381 12.11396973 4.54284668 12.78442383 C4.54556076 14.15610304 4.53823453 15.52783444 4.52148438 16.89941406 C4.50006119 18.99401685 4.52129637 21.08519084 4.546875 23.1796875 C4.54423163 24.51563254 4.53910643 25.85157545 4.53125 27.1875 C4.52673828 28.39792969 4.52222656 29.60835937 4.51757812 30.85546875 C3.90505838 34.57681514 2.94825644 35.72834803 0 38 C-2.4375 38.9375 -2.4375 38.9375 -5 39 C-8.48634601 37.37844371 -9.84302194 36.23546708 -12 33 C-12.44552222 28.55586634 -12.3241008 24.08898787 -12.3125 19.625 C-12.32861328 18.39265625 -12.34472656 17.1603125 -12.36132812 15.890625 C-12.36197266 14.70210937 -12.36261719 13.51359375 -12.36328125 12.2890625 C-12.36626221 11.20318848 -12.36924316 10.11731445 -12.37231445 8.99853516 C-11.95164353 5.61054812 -11.01646853 3.7302056 -9 1 C-5.90826248 -0.54586876 -3.40570448 -0.29359521 0 0 Z " fill="#000000" transform="translate(215,33)"/>
<path d="M0 0 C2.65380859 1.625 2.65380859 1.625 5 4 C5.64697266 6.9609375 5.64697266 6.9609375 5.6640625 10.375 C5.67050781 11.60734375 5.67695312 12.8396875 5.68359375 14.109375 C5.66425781 15.39328125 5.64492188 16.6771875 5.625 18 C5.65400391 19.92585938 5.65400391 19.92585938 5.68359375 21.890625 C5.67714844 23.12296875 5.67070313 24.3553125 5.6640625 25.625 C5.65842285 26.75164062 5.6527832 27.87828125 5.64697266 29.0390625 C5 32 5 32 2.68505859 34.40234375 C-0 36 -0 36 -3.625 35.9375 C-8.14285714 34.68253968 -8.14285714 34.68253968 -10 32 C-11.5208937 27.43731889 -11.18442481 22.90384735 -11.1875 18.125 C-11.19974609 17.13113281 -11.21199219 16.13726562 -11.22460938 15.11328125 C-11.22654297 14.15035156 -11.22847656 13.18742187 -11.23046875 12.1953125 C-11.23457764 11.31891113 -11.23868652 10.44250977 -11.24291992 9.53955078 C-10.96736054 6.65877822 -10.31390328 4.57639889 -9 2 C-5.48746854 -0.34168764 -4.13530644 -0.49623677 0 0 Z " fill="#000000" transform="translate(42,396)"/>
<path d="M0 0 C2.22634301 4.45268601 1.27477227 10.48548636 1.3125 15.375 C1.34150391 16.62023437 1.37050781 17.86546875 1.40039062 19.1484375 C1.40876953 20.3446875 1.41714844 21.5409375 1.42578125 22.7734375 C1.44036377 23.87091309 1.45494629 24.96838867 1.4699707 26.09912109 C0.88894097 29.68550827 -0.11868059 30.84679215 -3 33 C-6.75349462 33.46918683 -9.03848453 33.53136381 -12.375 31.6875 C-16.38590903 27.52232524 -15.22349633 21.01849584 -15.25 15.625 C-15.270625 14.5834375 -15.29125 13.541875 -15.3125 12.46875 C-15.36163607 2.86264913 -15.36163607 2.86264913 -12 -1 C-7.4365483 -4.04230113 -4.5781363 -2.46515031 0 0 Z " fill="#000000" transform="translate(46,451)"/>
<path d="M0 0 C3.07847986 0.62254973 4.15187379 2.00316298 6.10546875 4.42578125 C6.62304688 7.29492188 6.62304688 7.29492188 6.63671875 10.58203125 C6.641875 11.76925781 6.64703125 12.95648438 6.65234375 14.1796875 C6.636875 15.41589844 6.62140625 16.65210938 6.60546875 17.92578125 C6.6209375 19.16199219 6.63640625 20.39820313 6.65234375 21.671875 C6.6471875 22.85910156 6.64203125 24.04632813 6.63671875 25.26953125 C6.63220703 26.35427734 6.62769531 27.43902344 6.62304688 28.55664062 C5.98965536 32.06778077 4.87508942 33.24838214 2.10546875 35.42578125 C-0.80238006 36.13460428 -2.83707025 35.76549914 -5.89453125 35.42578125 C-8.56884614 33.61414858 -8.85373484 32.54817048 -9.89453125 29.42578125 C-10.15174675 25.63847782 -10.12588204 21.84589639 -10.14453125 18.05078125 C-10.16515625 17.00921875 -10.18578125 15.96765625 -10.20703125 14.89453125 C-10.25552075 5.41483444 -10.25552075 5.41483444 -6.89453125 1.42578125 C-5.04421135 -0.42453865 -2.46981043 0.13437993 0 0 Z " fill="#000000" transform="translate(40.89453125,343.57421875)"/>
<path d="M0 0 C1.90625 0.484375 1.90625 0.484375 4.40625 2.609375 C6.16209708 5.97474856 6.54281938 7.74452991 5.90625 11.484375 C3.83729835 14.42865235 2.39715073 15.32770455 -1.03125 16.421875 C-4.69247681 16.49659391 -6.2242174 15.69801444 -9.09375 13.484375 C-10.52037219 10.63113063 -10.40408868 8.64982951 -10.09375 5.484375 C-7.60378974 0.71195116 -5.15439468 -0.34619069 0 0 Z " fill="#000000" transform="translate(303.09375,231.515625)"/>
</svg>
